<svg xmlns="http://www.w3.org/2000/svg" viewBox="0 0 200 50"><path d="M32.54 8.33c2.46 0 4.51.58 6.16 1.73 1.65 1.15 2.91 2.68 3.78 4.6.87 1.91 1.31 4.05 1.31 6.41 0 2.27-.42 4.36-1.26 6.27-.84 1.91-2.09 3.45-3.74 4.62-1.65 1.17-3.7 1.75-6.16 1.75-2.49 0-4.56-.58-6.2-1.75-1.64-1.17-2.89-2.71-3.74-4.62-.85-1.91-1.28-4-1.28-6.27 0-2.36.43-4.5 1.3-6.41.87-1.91 2.12-3.45 3.77-4.6 1.65-1.15 3.71-1.73 6.17-1.73zm-.01 3.31c-1.61 0-2.95.43-4.01 1.3-1.06.87-1.84 2.03-2.34 3.5-.5 1.47-.75 3.1-.75 4.9 0 1.72.25 3.29.75 4.72.5 1.43 1.28 2.58 2.34 3.45 1.06.87 2.4 1.3 4.01 1.3 1.6 0 2.92-.43 3.97-1.3 1.05-.87 1.82-2.02 2.32-3.45.5-1.43.75-3.01.75-4.72 0-1.8-.25-3.43-.75-4.9-.5-1.47-1.27-2.63-2.32-3.5-1.05-.87-2.38-1.3-3.97-1.3zm19.35-3.54c0-2.38 1.18-3.58 3.53-3.58.96 0 2.1.15 3.42.45l.78-4.87C58.35-1.33 56.51-2 54.47-2 48.71-2 44.67.65 44.67 6.42c0 7.91 11.02 6.66 11.02 10.09 0 1.33-1.18 2.13-3.37 2.13-1.79 0-3.87-.34-5.58-.99l-.78 4.81c1.68.67 3.8.96 5.62.96 6.14 0 11-2.34 11-6.73.01-8.3-11.02-6.78-11.02-10.77l.33.18zm22.36-4.77c-1.66 0-3.05.76-3.55 2.54l-4.97 20.6h7.04l.76-3.9h7.04l.45 3.9h6.22l-4.67-23.14h-9.21zm.35 5.81l1.69 9.13h-4.57l2.89-9.13h-.01zm25.11-6.06c-2.34 0-4.23 1.07-5.41 2.73l.53-2.29h-6.7s-.35 2.12-.78 4.73l-5.62 23.26h7.03l2.21-9.22c.5.15 1.1.23 1.72.23 5.61 0 10.47-5.3 10.47-12.4 0-4.47-1.33-7.04-3.43-7.04h-.02zm-2.26 13.21c-1.23 0-1.95-.2-2.57-.54l1.13-6.17c.59-.54 1.34-.79 2.14-.79 1.6 0 2.13 1.77 2.13 3.5-.01 2.12-1.01 4-2.83 4zm18.62-13.21c-6.71 0-11.18 5.98-11.18 12.77 0 4.07 2.57 7.29 7.45 7.29 6.65 0 11.18-5.78 11.18-12.77 0-4.17-2.59-7.29-7.45-7.29zm-2.06 15.3c-1.76 0-2.52-1.45-2.52-3.27 0-2.9 1.53-7.66 4.33-7.66 1.84 0 2.41 1.53 2.41 3.01 0 3.15-1.49 7.92-4.21 7.92h-.01zm22.73-12.29l.6-2.76h-5.59l-5.96 25.09h6.44l3.68-15.39c.88-1.36 2.37-2.47 4.22-2.47.64 0 1.04.07 1.52.19l1.19-5.51c-.44-.12-.97-.15-1.52-.15-2.24 0-3.65 1.26-4.57 3.21l-.01-.21zm12.32 20.65c2.41 0 5.39-.57 7.54-1.52l.76-5.06c-1.71.76-4.37 1.44-6.44 1.44-4.87 0-6.56-3.7-6.56-7.45 0-4.68 2.76-10.1 9.36-10.1 1.75 0 3.9.41 5.57 1.1l.75-5.28c-1.64-.46-4.06-.8-6.25-.8-10.68 0-15.69 7.24-15.69 15.53-.01 6.75 3.62 12.14 10.96 12.14z" fill="#ff4800"/></svg>