<svg xmlns="http://www.w3.org/2000/svg" width="100" height="40" viewBox="0 0 100 40"><path d="M13.498 5.979c0-1.793 1.333-2.475 3.532-2.475.943 0 2.126.151 3.433.48l.807-4.984C20.006-1.476 18.148-2 16.044-2 10.165-2 6.032.655 6.032 6.531c0 8.105 11.053 6.823 11.053 10.33 0 1.364-1.183 2.179-3.383 2.179-1.793 0-3.885-.35-5.604-1.008L7.29 22.922c1.694.683 3.809.981 5.629.981 6.153 0 11.029-2.401 11.029-6.897.025-8.502-11.053-6.949-11.053-11.029l.603.002zM36.78 1.031c-1.669 0-3.063.782-3.563 2.6l-4.99 21.095h7.07l.758-3.99h7.067l.456 3.99h6.24L46.074 1.031H36.78zm.356 5.952l1.691 9.347h-4.586l2.895-9.347zM62.014.782c-2.348 0-4.244 1.092-5.428 2.795l.529-2.348h-6.723s-.347 2.176-.785 4.84l-5.644 23.817h7.05l2.22-9.446c.502.15 1.105.231 1.725.231 5.631 0 10.5-5.428 10.5-12.698C65.458 3.378 64.124.782 62.014.782zm-2.271 13.527c-1.235 0-1.961-.202-2.575-.553l1.134-6.313c.595-.552 1.342-.806 2.143-.806 1.61 0 2.138 1.815 2.138 3.58 0 2.173-1.008 4.092-2.842 4.092h.002zM78.39.782c-6.729 0-11.223 6.114-11.223 13.079 0 4.17 2.574 7.465 7.473 7.465 6.677 0 11.224-5.917 11.224-13.08C85.863 3.979 83.264.782 78.39.782zm-2.068 15.668c-1.765 0-2.53-1.488-2.53-3.35 0-2.97 1.54-7.847 4.34-7.847 1.841 0 2.421 1.566 2.421 3.085 0 3.226-1.49 8.112-4.229 8.112h-.002z" fill="#635BFF" fill-rule="nonzero"/></svg>